<?xml version="1.0" encoding="utf-8"?><!DOCTYPE svg PUBLIC "-//W3C//DTD SVG 1.1//EN" "http://www.w3.org/Graphics/SVG/1.1/DTD/svg11.dtd"><svg version="1.1" id="Layer_1" xmlns="http://www.w3.org/2000/svg" xmlns:xlink="http://www.w3.org/1999/xlink" x="0px" y="0px"width="1024px" height="640px" viewBox="0 0 1024 640" enable-background="new 0 0 1024 640" xml:space="preserve"><path fill="none" stroke="black" d="M689 281C710.435221285203 282.050722610512 734.938543937045 281.48934292098 751 288C823.962562426532 317.576037297225 869.579783631659 413.905746219374 810 493C787.119662197185 523.374451440617 755.729558281528 536.583852141727 708 543C687.6687 542.3334 667.3313 541.6666 647 541C638.632720583811 545.328833790592 635.113792760834 555.358477449161 628 561C603.358734520226 580.541510353059 574.502693773079 596.390451588511 538 604C436.012088397763 625.260950097228 348.762579462231 531.646136186465 365 434C367.957429932036 416.215056558162 367.058265877123 400.856198210928 373 387C397.407713092162 330.080908117657 455.515078242546 356.540803684843 518 346C533.154518570513 343.443530363851 571.662669952291 351.680893824889 574 350C594.880015894225 324.146012684335 609.3388741798 298.195654143152 644 286"/></svg>